<?xml version="1.0" encoding="UTF-8"?>
<svg width="1200px" height="1200px" viewBox="0 0 1200 1200" version="1.1" xmlns="http://www.w3.org/2000/svg" xmlns:xlink="http://www.w3.org/1999/xlink">
    <g id="logo-full" stroke="none" stroke-width="1" fill="none" fill-rule="evenodd">
      <path d="M1024.3,600 C1024.3,482.8 976.8,376.7 900,300 L600,0 L300,300 C223.2,376.8 175.7,482.9 175.7,600 C175.7,834.3 365.6,1024.3 600,1024.3 C834.4,1024.3 1024.3,834.3 1024.3,600 Z M897.1,600 C897.1,764.1 764.1,897.1 600,897.1 C435.9,897.1 302.9,764.1 302.9,600 C302.9,435.9 435.9,302.9 600,302.9 C764.1,302.9 897.1,435.9 897.1,600 Z" id="Shape" fill="#C7C8CB" fill-rule="nonzero"></path>
      <path d="M900,300 C817.1,217.1 708.5,175.7 599.9,175.7 L175.7,175.7 L175.7,599.9 C175.7,708.5 217.1,817.1 300,900 C465.7,1065.7 734.3,1065.7 900,900 C1065.7,734.3 1065.7,465.7 900,300 Z M810.1,389.9 C926.1,505.9 926.1,694 810.1,810 C694.1,926 506,926 390,810 C274,694 274,505.9 390,389.9 C506,273.9 694,273.9 810.1,389.9 Z" id="Shape" fill="#C7C8CB" fill-rule="nonzero"></path>
      <path d="M600,175.7 C482.8,175.7 376.7,223.2 300,300 L0,600 L300,900 C376.8,976.8 482.9,1024.3 600,1024.3 C834.3,1024.3 1024.3,834.4 1024.3,600 C1024.3,365.6 834.3,175.7 600,175.7 Z M600,302.9 C764.1,302.9 897.1,435.9 897.1,600 C897.1,764.1 764.1,897.1 600,897.1 C435.9,897.1 302.9,764.1 302.9,600 C302.9,435.9 435.9,302.9 600,302.9 Z" id="Shape" fill="#C7C8CB" fill-rule="nonzero"></path>
      <path d="M300,300 C217.1,382.9 175.7,491.5 175.7,600.1 L175.7,1024.3 L599.9,1024.3 C708.5,1024.3 817.1,982.9 900,900 C1065.7,734.3 1065.7,465.7 900,300 C734.3,134.3 465.7,134.3 300,300 Z M389.9,389.9 C505.9,273.9 694,273.9 810,389.9 C926,505.9 926,694 810,810 C694,926 505.9,926 389.9,810 C273.9,694 273.9,506 389.9,389.9 Z" id="Shape" fill="#C7C8CB" fill-rule="nonzero"></path>
      <path d="M175.7,600 C175.7,717.2 223.2,823.3 300,900 L600,1200 L900,900 C976.8,823.2 1024.3,717.1 1024.3,600 C1024.3,365.7 834.4,175.7 600,175.7 C365.6,175.7 175.7,365.7 175.7,600 Z M302.9,600 C302.9,435.9 435.9,302.9 600,302.9 C764.1,302.9 897.1,435.9 897.1,600 C897.1,764.1 764.1,897.1 600,897.1 C435.9,897.1 302.9,764.1 302.9,600 Z" id="Shape" fill="#C7C8CB" fill-rule="nonzero"></path>
      <path d="M300,900 C382.9,982.9 491.5,1024.3 600.1,1024.3 L1024.3,1024.3 L1024.3,600.1 C1024.3,491.5 982.9,382.9 900,300 C734.3,134.3 465.7,134.3 300,300 C134.3,465.7 134.3,734.3 300,900 Z M389.9,810.1 C273.9,694.1 273.9,506 389.9,390 C505.9,274 694,274 810,390 C926,506 926,694.1 810,810.1 C694,926.1 506,926.1 389.9,810.1 Z" id="Shape" fill="#C7C8CB" fill-rule="nonzero"></path>
      <path d="M600,1024.3 C717.2,1024.3 823.3,976.8 900,900 L1200,600 L900,300 C823.2,223.2 717.1,175.7 600,175.7 C365.7,175.7 175.7,365.6 175.7,600 C175.7,834.4 365.7,1024.3 600,1024.3 Z M600,897.1 C435.9,897.1 302.9,764.1 302.9,600 C302.9,435.9 435.9,302.9 600,302.9 C764.1,302.9 897.1,435.9 897.1,600 C897.1,764.1 764.1,897.1 600,897.1 Z" id="Shape" fill="#C7C8CB" fill-rule="nonzero"></path>
      <path d="M810.1,810.1 C694.1,926.1 506,926.1 390,810.1 C274,694.1 274,506 390,390 C506,274 694.1,274 810.1,390 C926.1,506 926.1,694 810.1,810.1 Z" id="Path" stroke="#FFFFFF" stroke-width="2"></path>
      <path d="M900,900 C982.9,817.1 1024.3,708.5 1024.3,599.9 L1024.3,175.7 L600.1,175.7 C491.5,175.7 382.9,217.1 300,300 C134.3,465.7 134.3,734.3 300,900 C465.7,1065.7 734.3,1065.7 900,900 Z M810.1,810.1 C694.1,926.1 506,926.1 390,810.1 C274,694.1 274,506 390,390 C506,274 694.1,274 810.1,390 C926.1,506 926.1,694 810.1,810.1 Z" id="Shape" fill="#C7C8CB" fill-rule="nonzero"></path>
    </g>
</svg>
